<mxfile host="Electron" modified="2023-04-28T19:56:45.383Z" agent="Mozilla/5.0 (Windows NT 10.0; Win64; x64) AppleWebKit/537.36 (KHTML, like Gecko) draw.io/21.2.1 Chrome/112.0.5615.87 Electron/24.1.2 Safari/537.36" etag="q0EEcTi2ujQNZpej8IdY" version="21.2.1" type="device">
  <diagram name="Page-1" id="uF6jB65cRRXunK7-ltSC">
    <mxGraphModel dx="988" dy="570" grid="1" gridSize="10" guides="1" tooltips="1" connect="1" arrows="1" fold="1" page="1" pageScale="1" pageWidth="800" pageHeight="400" math="0" shadow="0">
      <root>
        <mxCell id="0" />
        <mxCell id="1" parent="0" />
        <mxCell id="XVJnpDNFxtbZmpx2UN8z-15" value="" style="rounded=1;whiteSpace=wrap;html=1;fillColor=#e1d5e7;strokeColor=#9673a6;" vertex="1" parent="1">
          <mxGeometry x="100" y="30" width="640" height="130" as="geometry" />
        </mxCell>
        <mxCell id="XVJnpDNFxtbZmpx2UN8z-7" style="edgeStyle=orthogonalEdgeStyle;rounded=0;orthogonalLoop=1;jettySize=auto;html=1;entryX=0;entryY=0.5;entryDx=0;entryDy=0;" edge="1" parent="1" source="XVJnpDNFxtbZmpx2UN8z-1" target="XVJnpDNFxtbZmpx2UN8z-2">
          <mxGeometry relative="1" as="geometry" />
        </mxCell>
        <mxCell id="XVJnpDNFxtbZmpx2UN8z-1" value="2D convolution&lt;br&gt;linear activation" style="rounded=1;whiteSpace=wrap;html=1;fillColor=#f8cecc;strokeColor=#b85450;" vertex="1" parent="1">
          <mxGeometry x="160" y="90" width="120" height="60" as="geometry" />
        </mxCell>
        <mxCell id="XVJnpDNFxtbZmpx2UN8z-8" style="edgeStyle=orthogonalEdgeStyle;rounded=0;orthogonalLoop=1;jettySize=auto;html=1;entryX=0;entryY=0.5;entryDx=0;entryDy=0;" edge="1" parent="1" source="XVJnpDNFxtbZmpx2UN8z-2" target="XVJnpDNFxtbZmpx2UN8z-3">
          <mxGeometry relative="1" as="geometry" />
        </mxCell>
        <mxCell id="XVJnpDNFxtbZmpx2UN8z-2" value="Batch normalization" style="rounded=1;whiteSpace=wrap;html=1;fillColor=#d5e8d4;strokeColor=#82b366;" vertex="1" parent="1">
          <mxGeometry x="320" y="90" width="120" height="60" as="geometry" />
        </mxCell>
        <mxCell id="XVJnpDNFxtbZmpx2UN8z-9" style="edgeStyle=orthogonalEdgeStyle;rounded=0;orthogonalLoop=1;jettySize=auto;html=1;entryX=0;entryY=0.5;entryDx=0;entryDy=0;" edge="1" parent="1" source="XVJnpDNFxtbZmpx2UN8z-3" target="XVJnpDNFxtbZmpx2UN8z-4">
          <mxGeometry relative="1" as="geometry" />
        </mxCell>
        <mxCell id="XVJnpDNFxtbZmpx2UN8z-3" value="ReLU" style="rounded=1;whiteSpace=wrap;html=1;fillColor=#dae8fc;strokeColor=#6c8ebf;" vertex="1" parent="1">
          <mxGeometry x="480" y="90" width="40" height="60" as="geometry" />
        </mxCell>
        <mxCell id="XVJnpDNFxtbZmpx2UN8z-11" style="rounded=0;orthogonalLoop=1;jettySize=auto;html=1;exitX=1;exitY=0.5;exitDx=0;exitDy=0;" edge="1" parent="1" source="XVJnpDNFxtbZmpx2UN8z-4" target="XVJnpDNFxtbZmpx2UN8z-10">
          <mxGeometry relative="1" as="geometry" />
        </mxCell>
        <mxCell id="XVJnpDNFxtbZmpx2UN8z-4" value="2D convolution&lt;br&gt;linear activation" style="rounded=1;whiteSpace=wrap;html=1;fillColor=#f8cecc;strokeColor=#b85450;" vertex="1" parent="1">
          <mxGeometry x="560" y="90" width="120" height="60" as="geometry" />
        </mxCell>
        <mxCell id="XVJnpDNFxtbZmpx2UN8z-6" style="rounded=0;orthogonalLoop=1;jettySize=auto;html=1;entryX=0;entryY=0.5;entryDx=0;entryDy=0;" edge="1" parent="1" source="XVJnpDNFxtbZmpx2UN8z-5" target="XVJnpDNFxtbZmpx2UN8z-1">
          <mxGeometry relative="1" as="geometry" />
        </mxCell>
        <mxCell id="XVJnpDNFxtbZmpx2UN8z-12" style="edgeStyle=orthogonalEdgeStyle;rounded=0;orthogonalLoop=1;jettySize=auto;html=1;entryX=0;entryY=0.5;entryDx=0;entryDy=0;" edge="1" parent="1" source="XVJnpDNFxtbZmpx2UN8z-5" target="XVJnpDNFxtbZmpx2UN8z-10">
          <mxGeometry relative="1" as="geometry" />
        </mxCell>
        <mxCell id="XVJnpDNFxtbZmpx2UN8z-17" value="Residual connection" style="edgeLabel;html=1;align=center;verticalAlign=middle;resizable=0;points=[];" vertex="1" connectable="0" parent="XVJnpDNFxtbZmpx2UN8z-12">
          <mxGeometry x="-0.0473" y="2" relative="1" as="geometry">
            <mxPoint as="offset" />
          </mxGeometry>
        </mxCell>
        <mxCell id="XVJnpDNFxtbZmpx2UN8z-13" style="edgeStyle=orthogonalEdgeStyle;rounded=0;orthogonalLoop=1;jettySize=auto;html=1;" edge="1" parent="1" target="XVJnpDNFxtbZmpx2UN8z-5">
          <mxGeometry relative="1" as="geometry">
            <mxPoint x="80" y="70" as="sourcePoint" />
          </mxGeometry>
        </mxCell>
        <mxCell id="XVJnpDNFxtbZmpx2UN8z-5" value="" style="ellipse;whiteSpace=wrap;html=1;aspect=fixed;" vertex="1" parent="1">
          <mxGeometry x="110" y="60" width="20" height="20" as="geometry" />
        </mxCell>
        <mxCell id="XVJnpDNFxtbZmpx2UN8z-14" style="edgeStyle=orthogonalEdgeStyle;rounded=0;orthogonalLoop=1;jettySize=auto;html=1;" edge="1" parent="1" source="XVJnpDNFxtbZmpx2UN8z-10">
          <mxGeometry relative="1" as="geometry">
            <mxPoint x="760" y="70" as="targetPoint" />
          </mxGeometry>
        </mxCell>
        <mxCell id="XVJnpDNFxtbZmpx2UN8z-10" value="+" style="ellipse;whiteSpace=wrap;html=1;aspect=fixed;" vertex="1" parent="1">
          <mxGeometry x="710" y="60" width="20" height="20" as="geometry" />
        </mxCell>
        <mxCell id="XVJnpDNFxtbZmpx2UN8z-16" value="Residual block" style="text;html=1;align=center;verticalAlign=middle;resizable=0;points=[];autosize=1;strokeColor=none;fillColor=none;" vertex="1" parent="1">
          <mxGeometry x="370" y="30" width="100" height="30" as="geometry" />
        </mxCell>
      </root>
    </mxGraphModel>
  </diagram>
</mxfile>
